<svg xmlns="http://www.w3.org/2000/svg" viewBox="0 0 512 512" role="img" aria-label="Lepinet">
  <rect width="512" height="512" rx="112" fill="#1b6b4a"/>
  <g fill="#f7f8f6">
    <!-- stylised butterfly -->
    <rect x="248" y="150" width="16" height="230" rx="8"/>
    <path d="M256 200 C 190 120, 96 128, 96 210 C 96 286, 190 300, 256 262 Z"/>
    <path d="M256 200 C 322 120, 416 128, 416 210 C 416 286, 322 300, 256 262 Z"/>
    <path d="M256 268 C 206 250, 132 262, 132 320 C 132 372, 214 392, 256 344 Z"/>
    <path d="M256 268 C 306 250, 380 262, 380 320 C 380 372, 298 392, 256 344 Z"/>
    <circle cx="256" cy="150" r="18"/>
  </g>
</svg>
